<svg width="45" height="45" viewBox="0 0 45 45" fill="none" xmlns="http://www.w3.org/2000/svg">
<path d="M5.625 13.125C5.625 12.0895 6.46447 11.25 7.5 11.25H37.5C38.5355 11.25 39.375 12.0895 39.375 13.125C39.375 14.1605 38.5355 15 37.5 15H7.5C6.46447 15 5.625 14.1605 5.625 13.125Z" fill="#313131"/>
<path d="M5.625 22.5C5.625 21.4645 6.46447 20.625 7.5 20.625H37.5C38.5355 20.625 39.375 21.4645 39.375 22.5C39.375 23.5355 38.5355 24.375 37.5 24.375H7.5C6.46447 24.375 5.625 23.5355 5.625 22.5Z" fill="#313131"/>
<path d="M5.625 31.875C5.625 30.8395 6.46447 30 7.5 30H37.5C38.5355 30 39.375 30.8395 39.375 31.875C39.375 32.9105 38.5355 33.75 37.5 33.75H7.5C6.46447 33.75 5.625 32.9105 5.625 31.875Z" fill="#313131"/>
</svg>

